<svg width="1440" height="900" viewBox="0 0 1440 900" fill="none" xmlns="http://www.w3.org/2000/svg">
  <defs>
    <linearGradient id="bg" x1="180" y1="40" x2="1260" y2="860" gradientUnits="userSpaceOnUse">
      <stop stop-color="#FCFBF7"/>
      <stop offset="1" stop-color="#F2EEE6"/>
    </linearGradient>
    <linearGradient id="chrome" x1="0" y1="0" x2="0" y2="48" gradientUnits="userSpaceOnUse">
      <stop stop-color="#3C3A36"/>
      <stop offset="1" stop-color="#2C2A27"/>
    </linearGradient>
    <filter id="shadow" x="108" y="68" width="1224" height="764" filterUnits="userSpaceOnUse" color-interpolation-filters="sRGB">
      <feFlood flood-opacity="0" result="BackgroundImageFix"/>
      <feColorMatrix in="SourceAlpha" type="matrix" values="0 0 0 0 0 0 0 0 0 0 0 0 0 0 0 0 0 0 127 0" result="hardAlpha"/>
      <feOffset dy="24"/>
      <feGaussianBlur stdDeviation="36"/>
      <feColorMatrix type="matrix" values="0 0 0 0 0.25098 0 0 0 0 0.223529 0 0 0 0 0.152941 0 0 0 0.12 0"/>
      <feBlend mode="normal" in2="BackgroundImageFix" result="effect1_dropShadow_0_1"/>
      <feBlend mode="normal" in="SourceGraphic" in2="effect1_dropShadow_0_1" result="shape"/>
    </filter>
  </defs>

  <rect width="1440" height="900" fill="url(#bg)"/>
  <circle cx="214" cy="152" r="120" fill="#F8F4EC"/>
  <circle cx="1260" cy="742" r="180" fill="#EEE7DA"/>

  <g filter="url(#shadow)">
    <rect x="180" y="116" width="1080" height="620" rx="24" fill="#FBFAF5"/>
    <rect x="180" y="116" width="1080" height="48" rx="24" fill="url(#chrome)"/>
    <path d="M180 140C180 126.745 190.745 116 204 116H1236C1249.25 116 1260 126.745 1260 140V164H180V140Z" fill="url(#chrome)"/>
    <circle cx="214" cy="140" r="7" fill="#FF5F57"/>
    <circle cx="236" cy="140" r="7" fill="#FEBB2E"/>
    <circle cx="258" cy="140" r="7" fill="#28C840"/>
    <rect x="458" y="128" width="524" height="24" rx="12" fill="#4A4742"/>
    <text x="720" y="144" text-anchor="middle" font-family="Arial, sans-serif" font-size="11" fill="#DDD7CC">claude-class</text>

    <rect x="180" y="164" width="1080" height="572" rx="0 0 24 24" fill="#FBFAF5"/>

    <rect x="180" y="164" width="1080" height="56" fill="#F7F2E8"/>
    <text x="218" y="199" font-family="Georgia, serif" font-size="20" font-weight="700" fill="#D97757">Claude</text>
    <text x="292" y="199" font-family="Arial, sans-serif" font-size="20" font-weight="600" fill="#3A342C">Class</text>

    <rect x="362" y="180" width="48" height="24" rx="12" fill="#EFE7D8"/>
    <text x="386" y="196" text-anchor="middle" font-family="Arial, sans-serif" font-size="11" font-weight="700" fill="#5F584E">班级</text>
    <text x="436" y="196" font-family="Arial, sans-serif" font-size="12" fill="#8B8378">看板</text>
    <text x="476" y="196" font-family="Arial, sans-serif" font-size="12" fill="#8B8378">回收站</text>
    <circle cx="1212" cy="192" r="8" stroke="#736C61" stroke-width="1.5"/>

    <text x="278" y="276" font-family="Arial, sans-serif" font-size="12" font-weight="700" letter-spacing="2" fill="#E0A58C">CLASS</text>
    <text x="278" y="324" font-family="Georgia, serif" font-size="52" font-weight="700" fill="#2C241D">KB1-15</text>
    <text x="278" y="360" font-family="Arial, sans-serif" font-size="16" fill="#8C8377">5 位学生 · 10 条记录</text>
    <text x="1028" y="350" font-family="Arial, sans-serif" font-size="15" font-weight="600" fill="#5D554B">← 所有班级</text>
    <line x1="278" y1="388" x2="1102" y2="388" stroke="#EAE2D4"/>

    <rect x="278" y="420" width="84" height="32" rx="10" fill="#FFFFFF"/>
    <rect x="368" y="420" width="84" height="32" rx="10" fill="#F0ECE2"/>
    <rect x="458" y="420" width="84" height="32" rx="10" fill="#F0ECE2"/>
    <text x="320" y="440" text-anchor="middle" font-family="Arial, sans-serif" font-size="13" font-weight="700" fill="#403931">课堂记录</text>
    <text x="410" y="440" text-anchor="middle" font-family="Arial, sans-serif" font-size="13" fill="#7F776C">学生管理</text>
    <text x="500" y="440" text-anchor="middle" font-family="Arial, sans-serif" font-size="13" fill="#7F776C">班级设置</text>

    <rect x="278" y="474" width="856" height="60" rx="14" fill="#FFFFFF" stroke="#EEE7DA"/>
    <rect x="296" y="489" width="54" height="30" rx="10" fill="#F4EFE5"/>
    <rect x="356" y="489" width="54" height="30" rx="10" fill="#EFEAE0"/>
    <text x="323" y="508" text-anchor="middle" font-family="Arial, sans-serif" font-size="12" font-weight="700" fill="#453D34">周视图</text>
    <text x="383" y="508" text-anchor="middle" font-family="Arial, sans-serif" font-size="12" fill="#81786C">月视图</text>
    <rect x="428" y="489" width="210" height="30" rx="10" fill="#F7F2E8"/>
    <text x="533" y="508" text-anchor="middle" font-family="Arial, sans-serif" font-size="12" font-weight="700" fill="#6B6257">2026 第 17 周 · 04.20 – 04.26</text>
    <text x="654" y="508" font-family="Arial, sans-serif" font-size="12" fill="#7C7469">上限</text>
    <text x="706" y="508" font-family="Arial, sans-serif" font-size="12" fill="#7C7469">回到本期</text>
    <rect x="1042" y="486" width="74" height="36" rx="10" fill="#FFFDFC" stroke="#E8E0D2"/>
    <text x="1079" y="509" text-anchor="middle" font-family="Arial, sans-serif" font-size="12" font-weight="700" fill="#665D51">导出图片</text>

    <rect x="278" y="552" width="856" height="256" rx="18" fill="#FFFFFF" stroke="#EEE7DA"/>
    <rect x="278" y="552" width="856" height="34" rx="18" fill="#F5F0E6"/>
    <text x="300" y="574" font-family="Arial, sans-serif" font-size="12" font-weight="700" fill="#8F867A">#</text>
    <text x="330" y="574" font-family="Arial, sans-serif" font-size="12" font-weight="700" fill="#8F867A">学生姓名</text>
    <text x="470" y="574" font-family="Arial, sans-serif" font-size="12" font-weight="700" fill="#8F867A">打卡次数</text>
    <text x="690" y="574" font-family="Arial, sans-serif" font-size="12" font-weight="700" fill="#8F867A">打卡表现</text>
    <text x="836" y="574" font-family="Arial, sans-serif" font-size="12" font-weight="700" fill="#8F867A">简要评语</text>
    <text x="1100" y="574" font-family="Arial, sans-serif" font-size="12" font-weight="700" fill="#8F867A">操作</text>

    <g font-family="Arial, sans-serif" font-size="13" fill="#3A332C">
      <text x="300" y="626">1</text>
      <text x="330" y="626">sam</text>
      <text x="300" y="678">2</text>
      <text x="330" y="678">jack</text>
      <text x="300" y="730">3</text>
      <text x="330" y="730">abby</text>
      <text x="300" y="782">4</text>
      <text x="330" y="782">David</text>
    </g>

    <g>
      <line x1="278" y1="638" x2="1134" y2="638" stroke="#F0E8DC"/>
      <line x1="278" y1="690" x2="1134" y2="690" stroke="#F0E8DC"/>
      <line x1="278" y1="742" x2="1134" y2="742" stroke="#F0E8DC"/>
      <line x1="278" y1="794" x2="1134" y2="794" stroke="#F0E8DC"/>
    </g>

    <g font-family="Arial, sans-serif" font-size="11" text-anchor="middle">
      <circle cx="478" cy="619" r="12" fill="#FFFFFF" stroke="#E6DCCF"/><text x="478" y="623" fill="#8A8176">0</text>
      <circle cx="504" cy="619" r="12" fill="#FFFFFF" stroke="#E6DCCF"/><text x="504" y="623" fill="#8A8176">1</text>
      <circle cx="530" cy="619" r="12" fill="#E88F70"/><text x="530" y="623" fill="#FFFFFF">2</text>
      <circle cx="556" cy="619" r="12" fill="#FFFFFF" stroke="#E6DCCF"/><text x="556" y="623" fill="#8A8176">3</text>
      <circle cx="582" cy="619" r="12" fill="#FFFFFF" stroke="#E6DCCF"/><text x="582" y="623" fill="#8A8176">4</text>
      <circle cx="608" cy="619" r="12" fill="#FFFFFF" stroke="#E6DCCF"/><text x="608" y="623" fill="#8A8176">5</text>
    </g>
    <g font-family="Arial, sans-serif" font-size="11" text-anchor="middle">
      <circle cx="478" cy="671" r="12" fill="#FFFFFF" stroke="#E6DCCF"/><text x="478" y="675" fill="#8A8176">0</text>
      <circle cx="504" cy="671" r="12" fill="#FFFFFF" stroke="#E6DCCF"/><text x="504" y="675" fill="#8A8176">1</text>
      <circle cx="530" cy="671" r="12" fill="#E88F70"/><text x="530" y="675" fill="#FFFFFF">2</text>
      <circle cx="556" cy="671" r="12" fill="#FFFFFF" stroke="#E6DCCF"/><text x="556" y="675" fill="#8A8176">3</text>
      <circle cx="582" cy="671" r="12" fill="#FFFFFF" stroke="#E6DCCF"/><text x="582" y="675" fill="#8A8176">4</text>
      <circle cx="608" cy="671" r="12" fill="#FFFFFF" stroke="#E6DCCF"/><text x="608" y="675" fill="#8A8176">5</text>
    </g>
    <g font-family="Arial, sans-serif" font-size="11" text-anchor="middle">
      <circle cx="478" cy="723" r="12" fill="#FFFFFF" stroke="#E6DCCF"/><text x="478" y="727" fill="#8A8176">0</text>
      <circle cx="504" cy="723" r="12" fill="#E88F70"/><text x="504" y="727" fill="#FFFFFF">1</text>
      <circle cx="530" cy="723" r="12" fill="#FFFFFF" stroke="#E6DCCF"/><text x="530" y="727" fill="#8A8176">2</text>
      <circle cx="556" cy="723" r="12" fill="#FFFFFF" stroke="#E6DCCF"/><text x="556" y="727" fill="#8A8176">3</text>
      <circle cx="582" cy="723" r="12" fill="#FFFFFF" stroke="#E6DCCF"/><text x="582" y="727" fill="#8A8176">4</text>
      <circle cx="608" cy="723" r="12" fill="#FFFFFF" stroke="#E6DCCF"/><text x="608" y="727" fill="#8A8176">5</text>
    </g>
    <g font-family="Arial, sans-serif" font-size="11" text-anchor="middle">
      <circle cx="478" cy="775" r="12" fill="#FFFFFF" stroke="#E6DCCF"/><text x="478" y="779" fill="#8A8176">0</text>
      <circle cx="504" cy="775" r="12" fill="#FFFFFF" stroke="#E6DCCF"/><text x="504" y="779" fill="#8A8176">1</text>
      <circle cx="530" cy="775" r="12" fill="#E88F70"/><text x="530" y="779" fill="#FFFFFF">2</text>
      <circle cx="556" cy="775" r="12" fill="#FFFFFF" stroke="#E6DCCF"/><text x="556" y="779" fill="#8A8176">3</text>
      <circle cx="582" cy="775" r="12" fill="#FFFFFF" stroke="#E6DCCF"/><text x="582" y="779" fill="#8A8176">4</text>
      <circle cx="608" cy="775" r="12" fill="#FFFFFF" stroke="#E6DCCF"/><text x="608" y="779" fill="#8A8176">5</text>
    </g>

    <g font-family="Arial, sans-serif" font-size="11" text-anchor="middle">
      <rect x="690" y="607" width="24" height="24" rx="12" fill="#80935D"/><text x="702" y="622" fill="#FFFFFF">优</text>
      <rect x="720" y="607" width="24" height="24" rx="12" fill="#FFFFFF" stroke="#E6DCCF"/><text x="732" y="622" fill="#988F83">良</text>
      <rect x="750" y="607" width="36" height="24" rx="12" fill="#FFFFFF" stroke="#E6DCCF"/><text x="768" y="622" fill="#988F83">加油</text>

      <rect x="690" y="659" width="24" height="24" rx="12" fill="#80935D"/><text x="702" y="674" fill="#FFFFFF">优</text>
      <rect x="720" y="659" width="24" height="24" rx="12" fill="#FFFFFF" stroke="#E6DCCF"/><text x="732" y="674" fill="#988F83">良</text>
      <rect x="750" y="659" width="36" height="24" rx="12" fill="#FFFFFF" stroke="#E6DCCF"/><text x="768" y="674" fill="#988F83">加油</text>

      <rect x="690" y="711" width="24" height="24" rx="12" fill="#80935D"/><text x="702" y="726" fill="#FFFFFF">优</text>
      <rect x="720" y="711" width="24" height="24" rx="12" fill="#FFFFFF" stroke="#E6DCCF"/><text x="732" y="726" fill="#988F83">良</text>
      <rect x="750" y="711" width="36" height="24" rx="12" fill="#FFFFFF" stroke="#E6DCCF"/><text x="768" y="726" fill="#988F83">加油</text>

      <rect x="690" y="763" width="24" height="24" rx="12" fill="#F7F4EC" stroke="#E6DCCF"/><text x="702" y="778" fill="#988F83">优</text>
      <rect x="720" y="763" width="24" height="24" rx="12" fill="#D4A24D"/><text x="732" y="778" fill="#FFFFFF">良</text>
      <rect x="750" y="763" width="36" height="24" rx="12" fill="#FFFFFF" stroke="#E6DCCF"/><text x="768" y="778" fill="#988F83">加油</text>
    </g>

    <g font-family="Arial, sans-serif" font-size="13" fill="#52483D">
      <text x="834" y="624">继续加油哦！</text>
      <text x="834" y="676">继续加油哦！</text>
      <text x="834" y="728">继续加油哦！</text>
      <text x="834" y="780">继续加油哦！</text>
      <text x="1100" y="624">清空</text>
      <text x="1100" y="676">清空</text>
      <text x="1100" y="728">清空</text>
      <text x="1100" y="780">清空</text>
    </g>

    <text x="280" y="842" font-family="Arial, sans-serif" font-size="14" fill="#8F8478">已填 <tspan fill="#D97757" font-weight="700">5</tspan> / 5</text>
    <text x="1082" y="842" font-family="Arial, sans-serif" font-size="14" fill="#8F8478">本周次数上限 5</text>
  </g>
</svg>
